HIERARCHY
ROOT Hips
{
 OFFSET 0.000000 0.000000 0.000000
 CHANNELS 6 Xposition Yposition Zposition Yrotation Xrotation Zrotation
 JOINT Chest
 {
  OFFSET 0.000000 10.388337 0.005184
  CHANNELS 3 Yrotation Xrotation Zrotation
  JOINT Chest2
  {
   OFFSET 0.000000 10.458247 -0.010579
   CHANNELS 3 Yrotation Xrotation Zrotation
   JOINT Chest3
   {
    OFFSET 0.000000 10.415828 0.000000
    CHANNELS 3 Yrotation Xrotation Zrotation
    JOINT Chest4
    {
     OFFSET 0.000000 10.405206 0.000000
     CHANNELS 3 Yrotation Xrotation Zrotation
     JOINT Neck
     {
      OFFSET 0.000000 15.720090 0.000000
      CHANNELS 3 Yrotation Xrotation Zrotation
      JOINT Head
      {
       OFFSET 0.000000 9.732643 -0.022378
       CHANNELS 3 Yrotation Xrotation Zrotation
       End Site
       {
        OFFSET 0.000000 18.603619 -0.011814
       }
      }
     }
     JOINT RightCollar
     {
      OFFSET -3.167735 10.388953 0.000000
      CHANNELS 3 Yrotation Xrotation Zrotation
      JOINT RightShoulder
      {
       OFFSET -14.584825 0.000000 0.000000
       CHANNELS 3 Yrotation Xrotation Zrotation
       JOINT RightElbow
       {
        OFFSET 0.000000 -31.921689 0.000000
        CHANNELS 3 Yrotation Xrotation Zrotation
        JOINT RightWrist
        {
         OFFSET 0.000000 -25.835217 0.000000
         CHANNELS 3 Yrotation Xrotation Zrotation
         End Site
         {
          OFFSET 0.000000 -19.128920 0.000000
         }
        }
       }
      }
     }
     JOINT LeftCollar
     {
      OFFSET 3.167735 10.388953 0.000000
      CHANNELS 3 Yrotation Xrotation Zrotation
      JOINT LeftShoulder
      {
       OFFSET 14.584825 0.000000 0.000000
       CHANNELS 3 Yrotation Xrotation Zrotation
       JOINT LeftElbow
       {
        OFFSET 0.000000 -31.921689 0.000000
        CHANNELS 3 Yrotation Xrotation Zrotation
        JOINT LeftWrist
        {
         OFFSET 0.000000 -25.835217 0.000000
         CHANNELS 3 Yrotation Xrotation Zrotation
         End Site
         {
          OFFSET 0.000000 -19.128920 0.000000
         }
        }
       }
      }
     }
    }
   }
  }
 }
 JOINT RightHip
 {
  OFFSET -8.403278 -0.025659 -0.002592
  CHANNELS 3 Yrotation Xrotation Zrotation
  JOINT RightKnee
  {
   OFFSET 0.000000 -44.040977 0.002477
   CHANNELS 3 Yrotation Xrotation Zrotation
   JOINT RightAnkle
   {
    OFFSET 0.000000 -42.951162 0.004189
    CHANNELS 3 Yrotation Xrotation Zrotation
    JOINT RightToe
    {
     OFFSET 0.000000 -5.494238 12.197485
     CHANNELS 3 Yrotation Xrotation Zrotation
     End Site
     {
      OFFSET 0.000000 -1.538716 6.371628
     }
    }
   }
  }
 }
 JOINT LeftHip
 {
  OFFSET 8.403278 -0.025659 -0.002592
  CHANNELS 3 Yrotation Xrotation Zrotation
  JOINT LeftKnee
  {
   OFFSET 0.000000 -44.040977 0.002477
   CHANNELS 3 Yrotation Xrotation Zrotation
   JOINT LeftAnkle
   {
    OFFSET 0.000000 -42.951162 0.004189
    CHANNELS 3 Yrotation Xrotation Zrotation
    JOINT LeftToe
    {
     OFFSET 0.000000 -5.494238 12.197485
     CHANNELS 3 Yrotation Xrotation Zrotation
     End Site
     {
      OFFSET 0.000000 -1.538716 6.371628
     }
    }
   }
  }
 }
}
MOTION
Frames: 5
Frame Time: 0.008333
-72.883728 93.586954 668.118101 110.288377 -13.252888 2.505376 -2.146804 3.195995 -2.958228 -0.057858 0.091922 -0.079392 -0.102921 0.163321 -0.141170 -2.054316 3.099335 -2.772687 8.931975 24.845511 3.348607 15.203860 10.370027 3.893296 17.178222 -10.089287 -9.942132 19.414704 -64.551693 -8.005266 -40.697713 -12.255304 21.400659 -33.922876 -2.320537 3.594158 -9.429507 -5.088656 19.962497 -2.249596 -63.469334 18.758542 43.755525 -1.833166 -3.124976 11.352087 -16.968015 11.308502 2.478556 15.246938 3.488260 -0.685613 7.344773 1.664856 -13.130527 -22.409784 0.044826 -0.028630 -0.114415 0.192843 7.457262 -5.701419 2.198330 16.313479 6.076723 0.900593 -13.587366 17.293734 -16.440577 0.220950 1.032761 1.068963
-72.837660 93.574079 667.987869 110.447555 -13.161611 2.462284 -2.152795 3.161585 -2.965558 -0.058152 0.091072 -0.080412 -0.103442 0.161807 -0.142980 -2.063344 3.067653 -2.805696 8.891945 24.847765 3.349955 15.131793 10.372432 3.905098 16.435174 -10.374062 -10.133460 20.225473 -64.503018 -9.361005 -41.232579 -12.849720 24.262680 -34.022041 -1.933792 3.727170 -9.824021 -4.685155 19.696987 -0.017614 -63.043034 16.975521 44.516486 -0.964077 -2.854228 11.698689 -16.542672 11.540344 2.518287 15.200098 3.501801 -0.686480 7.353836 1.649310 -13.365375 -22.452062 -0.005909 -0.032212 -0.102267 0.279074 7.395035 -5.824091 2.056455 16.536586 6.095228 0.923688 -13.656640 16.952923 -16.491481 0.219464 1.124030 1.047814
-72.784493 93.560528 667.849506 110.566548 -13.089568 2.442315 -2.102268 3.162155 -2.990058 -0.056740 0.091134 -0.081403 -0.100934 0.161917 -0.144739 -2.015606 3.069850 -2.837959 8.824309 24.825528 3.352419 15.010009 10.328328 3.922904 15.591346 -10.702735 -10.350689 21.196759 -64.429421 -10.892918 -41.609775 -13.606963 26.920149 -33.930232 -1.390336 3.831088 -10.208413 -4.231822 19.421395 2.287561 -62.515032 15.189850 45.151199 -0.313599 -3.033922 11.955415 -15.994569 11.586607 2.569136 15.178762 3.493825 -0.684588 7.360810 1.634101 -13.615696 -22.481733 -0.043335 -0.033913 -0.103763 0.345460 7.325238 -5.912654 1.889173 16.770566 6.118762 0.963860 -13.679711 16.551743 -16.502684 0.225509 1.226363 0.999753
-72.721355 93.546065 667.710979 110.631355 -13.035049 2.425888 -2.012917 3.193584 -3.004084 -0.054241 0.091960 -0.082172 -0.096494 0.163386 -0.146104 -1.931430 3.099620 -2.862497 8.745653 24.781621 3.347452 14.870265 10.244442 3.928009 14.706610 -11.076400 -10.604134 22.234250 -64.325882 -12.431269 -41.793437 -14.606678 29.269607 -33.715980 -0.757011 3.933448 -10.526295 -3.725007 19.127974 4.439587 -61.883483 13.546553 45.542762 0.112738 -3.480868 12.088525 -15.266918 11.383297 2.618481 15.176621 3.480564 -0.674668 7.373850 1.615742 -13.841818 -22.481204 -0.050222 -0.031271 -0.129999 0.378529 7.276533 -5.963676 1.725928 17.006879 6.127543 1.013212 -13.677010 16.140718 -16.488325 0.228376 1.308141 0.935085
-72.647840 93.530372 667.577541 110.628548 -12.988932 2.410609 -1.910930 3.246826 -3.003103 -0.051454 0.093405 -0.082749 -0.091540 0.165952 -0.147124 -1.835978 3.147920 -2.877688 8.676402 24.716586 3.329300 14.750553 10.123076 3.905542 13.859392 -11.484570 -10.899156 23.220945 -64.206567 -13.782611 -41.843256 -15.823199 31.305476 -33.415531 -0.119518 4.035978 -10.739214 -3.177638 18.816895 6.285959 -61.168346 12.166790 45.577323 0.343292 -4.030601 12.076498 -14.367309 10.973903 2.648685 15.182386 3.448867 -0.671704 7.401219 1.597770 -13.937554 -22.443345 -0.034605 -0.021073 -0.181006 0.378788 7.273836 -5.984668 1.579469 17.226315 6.118871 1.068432 -13.685842 15.726882 -16.477579 0.226856 1.365056 0.864749
